<?xml version="1.0" standalone="no"?>
<!DOCTYPE svg PUBLIC "-//W3C//DTD SVG 20010904//EN"
 "http://www.w3.org/TR/2001/REC-SVG-20010904/DTD/svg10.dtd">
<svg version="1.0" xmlns="http://www.w3.org/2000/svg"
 width="1146.000000pt" height="501.000000pt" viewBox="0 0 1146.000000 501.000000"
 preserveAspectRatio="xMidYMid meet">

<g transform="translate(0.000000,501.000000) scale(0.100000,-0.100000)"
fill="#000000" stroke="none">
<path d="M8101 4930 c-150 -72 -341 -216 -613 -459 -332 -296 -500 -473 -817
-861 -567 -693 -804 -1031 -890 -1266 -39 -107 -51 -173 -59 -315 l-7 -121
-35 -14 c-238 -91 -1052 -419 -1360 -549 -217 -92 -573 -240 -791 -330 -218
-91 -454 -191 -525 -223 -224 -103 -628 -309 -647 -330 -25 -27 -19 -73 11
-88 37 -18 106 0 427 116 165 59 392 138 505 174 150 49 1279 391 1823 552 10
3 -51 -75 -135 -173 -286 -331 -703 -864 -715 -912 -10 -42 26 -79 68 -68 37
10 181 123 324 254 72 66 290 283 485 482 195 199 412 416 482 481 l127 118
248 61 c860 210 2004 414 2823 505 488 54 792 72 1352 82 542 9 739 -8 888
-79 127 -60 227 -197 238 -324 4 -56 1 -70 -26 -126 -38 -77 -142 -191 -286
-312 -100 -85 -111 -99 -106 -135 2 -19 29 -40 51 -40 23 0 211 163 316 274
133 140 182 266 154 396 -31 145 -151 295 -291 364 -156 76 -412 101 -935 91
-785 -15 -1324 -62 -2134 -186 -145 -22 -265 -38 -268 -36 -2 3 12 8 31 11 45
9 352 110 516 171 341 125 660 331 660 426 0 44 -43 84 -108 98 -161 34 -663
-7 -1057 -88 -77 -15 -141 -27 -143 -26 -2 2 32 47 74 101 181 232 227 330
173 368 -36 25 -65 20 -187 -33 -332 -145 -593 -310 -977 -616 l-141 -112
-160 -53 c-87 -29 -219 -75 -293 -102 -74 -26 -136 -47 -138 -44 -4 4 229 283
356 426 104 117 269 294 515 554 497 524 957 1051 1160 1330 174 238 266 407
274 503 4 59 3 63 -26 92 -45 46 -103 43 -211 -9z m123 -112 c-35 -100 -184
-335 -338 -532 -201 -257 -642 -754 -1121 -1261 -367 -389 -449 -480 -717
-798 -115 -136 -212 -247 -215 -247 -12 0 7 188 27 260 60 214 241 487 715
1080 464 580 654 782 1080 1155 236 207 496 384 562 385 22 0 22 -1 7 -42z
m-451 -1987 c-26 -42 -196 -261 -241 -310 -36 -41 -42 -43 -207 -86 -93 -24
-223 -59 -287 -78 -64 -18 -115 -30 -113 -26 18 29 361 270 490 344 99 58 352
184 368 185 5 0 1 -13 -10 -29z m1081 -306 c0 -14 -120 -96 -237 -162 -125
-71 -254 -124 -531 -219 -240 -82 -390 -124 -537 -149 -97 -17 -252 -25 -264
-14 -3 4 0 22 8 41 17 39 176 253 239 320 43 47 43 47 183 77 238 51 514 94
740 114 88 8 400 2 399 -8z m-1536 -274 c-123 -155 -165 -249 -136 -307 24
-50 61 -68 151 -74 l82 -5 -100 -19 c-368 -68 -1169 -237 -1345 -283 -30 -7
35 47 315 266 110 85 243 189 295 231 95 75 97 76 255 125 194 59 539 154 543
150 2 -2 -25 -39 -60 -84z m-958 -225 c0 -1 -46 -38 -102 -82 -154 -117 -393
-310 -478 -384 -71 -63 -81 -68 -176 -93 -55 -15 -104 -27 -108 -27 -4 0 50
62 121 138 70 75 156 168 190 205 l61 68 184 68 c100 37 208 77 238 88 58 22
70 25 70 19z m-903 -463 l-175 -188 -149 -43 c-332 -97 -1660 -498 -1828 -553
-98 -32 -181 -57 -182 -55 -4 4 5 8 437 186 184 76 511 212 725 303 534 225
1336 548 1344 541 1 -1 -76 -87 -172 -191z m-348 -652 c-226 -231 -425 -429
-442 -442 -51 -37 336 435 559 683 l115 127 72 21 c40 12 77 23 82 25 6 2 14
4 18 4 5 1 -177 -188 -404 -418z"/>
<path d="M5920 4658 c-43 -37 -334 -354 -526 -573 -188 -215 -414 -547 -639
-938 l-91 -158 -145 -121 c-252 -211 -442 -346 -469 -336 -4 2 50 80 121 173
141 186 162 228 135 270 -21 32 -41 32 -237 -1 -251 -41 -309 -65 -699 -282
-262 -146 -550 -295 -558 -288 -2 3 36 68 86 144 50 76 96 150 101 166 39 101
-17 150 -115 100 -85 -43 -416 -296 -659 -503 -282 -241 -905 -808 -1421
-1295 l-101 -95 72 161 c61 137 86 180 161 277 173 224 566 714 766 954 112
133 266 319 342 412 77 94 226 271 331 395 105 124 225 268 266 320 181 228
379 519 443 650 39 81 41 89 40 175 -1 160 -67 276 -190 336 -60 30 -76 33
-181 37 -311 12 -692 -92 -1116 -304 -108 -55 -276 -153 -309 -182 -35 -29
-12 -92 32 -92 11 0 68 30 127 67 186 115 489 251 718 322 274 85 580 110 684
57 74 -39 131 -148 131 -250 0 -69 -40 -150 -172 -347 -148 -223 -276 -389
-514 -669 -114 -135 -279 -333 -368 -440 -88 -107 -251 -303 -361 -435 -110
-132 -283 -344 -385 -472 -102 -127 -186 -230 -188 -229 -3 3 128 303 213 486
131 284 427 860 596 1160 94 168 224 410 287 539 110 224 115 235 101 260 -10
18 -25 27 -46 29 l-31 3 -120 -243 c-66 -134 -195 -376 -287 -538 -157 -279
-500 -949 -615 -1200 -29 -63 -122 -275 -207 -470 -85 -195 -164 -372 -176
-392 -12 -20 -157 -216 -323 -435 -165 -219 -313 -419 -328 -445 -51 -88 -51
-137 0 -160 40 -18 89 14 247 161 76 72 148 131 160 133 13 2 30 18 44 43 55
99 1324 1280 1818 1691 179 150 457 365 463 359 2 -2 -23 -43 -56 -92 -108
-161 -128 -219 -92 -266 13 -16 31 -27 47 -27 60 0 241 88 675 326 314 173
394 213 481 239 57 17 269 56 275 50 2 -2 -43 -66 -101 -142 -110 -145 -157
-223 -157 -261 0 -13 12 -34 26 -49 64 -64 218 4 477 211 60 47 109 86 110 86
2 0 -61 -127 -138 -282 -78 -156 -165 -343 -194 -417 -64 -162 -171 -487 -171
-518 0 -31 44 -59 72 -46 17 7 37 57 99 239 117 348 243 626 481 1059 l93 171
120 111 c153 141 534 528 649 657 108 123 234 290 314 417 116 185 232 440
232 512 0 87 -69 103 -150 35z m-15 -195 c-63 -151 -216 -396 -360 -576 -81
-101 -405 -447 -536 -572 l-62 -60 28 50 c92 165 335 513 464 665 72 86 473
530 478 530 2 0 -4 -17 -12 -37z m-5405 -3710 c-30 -59 -56 -93 -107 -138
l-67 -60 103 138 c57 75 105 137 107 137 2 0 -14 -35 -36 -77z"/>
</g>
</svg>
