<?xml version="1.0" standalone="no"?>
<!DOCTYPE svg PUBLIC "-//W3C//DTD SVG 20010904//EN"
 "http://www.w3.org/TR/2001/REC-SVG-20010904/DTD/svg10.dtd">
<svg version="1.0" xmlns="http://www.w3.org/2000/svg"
 width="831.000000pt" height="103.000000pt" viewBox="0 0 831.000000 103.000000"
 preserveAspectRatio="xMidYMid meet">

<g transform="translate(0.000000,103.000000) scale(0.100000,-0.100000)"
fill="#000000" stroke="none">
<path d="M3184 739 c-18 -5 -48 -27 -68 -49 -29 -32 -36 -48 -36 -81 0 -86 38
-116 183 -148 46 -10 93 -23 104 -30 81 -42 66 -160 -23 -197 -46 -19 -121
-17 -169 5 -46 21 -63 39 -74 78 -4 15 -15 29 -24 31 -15 3 -17 -7 -17 -78 0
-72 2 -81 18 -78 9 2 18 13 20 25 l3 22 35 -24 c61 -42 162 -46 238 -10 87 41
116 160 56 229 -30 34 -57 44 -207 76 -92 20 -130 87 -87 149 37 52 142 67
204 30 39 -24 52 -42 60 -79 3 -14 13 -26 23 -28 15 -3 17 6 17 77 0 67 -3 81
-16 81 -9 0 -18 -8 -21 -18 -4 -18 -7 -17 -50 5 -49 24 -112 29 -169 12z"/>
<path d="M4344 739 c-18 -5 -48 -27 -68 -49 -29 -32 -36 -48 -36 -81 0 -86 38
-116 183 -148 46 -10 93 -23 104 -30 81 -42 66 -160 -23 -197 -46 -19 -121
-17 -169 5 -46 21 -63 39 -74 78 -4 15 -15 29 -24 31 -15 3 -17 -7 -17 -78 0
-72 2 -81 18 -78 9 2 18 13 20 25 l3 22 35 -24 c61 -42 162 -46 238 -10 87 41
116 160 56 229 -30 34 -57 44 -207 76 -92 20 -130 87 -87 149 37 52 142 67
204 30 39 -24 52 -42 60 -79 3 -14 13 -26 23 -28 15 -3 17 6 17 77 0 67 -3 81
-16 81 -9 0 -18 -8 -21 -18 -4 -18 -7 -17 -50 5 -49 24 -112 29 -169 12z"/>
<path d="M115 730 c-11 -18 5 -30 41 -30 l34 0 0 -234 0 -235 -37 -3 c-26 -2
-38 -8 -38 -18 0 -13 33 -15 228 -18 l227 -2 0 91 c0 81 -2 90 -17 87 -15 -3
-19 -16 -21 -71 l-3 -67 -149 0 -150 0 0 115 0 115 69 0 70 0 3 -32 c2 -22 9
-34 21 -36 15 -3 17 6 17 88 0 82 -2 91 -17 88 -12 -2 -19 -14 -21 -36 l-3
-32 -70 0 -69 0 0 100 0 100 140 0 139 0 3 -57 c2 -46 7 -59 21 -61 15 -3 17
6 17 77 l0 81 -214 0 c-133 0 -217 -4 -221 -10z"/>
<path d="M715 730 c-12 -20 7 -30 61 -30 l54 0 0 -235 0 -234 -57 -3 c-44 -2
-58 -7 -58 -18 0 -13 34 -15 233 -18 l232 -2 0 94 c0 101 -5 126 -25 126 -19
0 -25 -24 -25 -106 l0 -74 -130 0 -130 0 0 235 0 235 60 0 c53 0 60 2 60 20 0
19 -7 20 -134 20 -79 0 -137 -4 -141 -10z"/>
<path d="M1295 730 c-12 -20 7 -30 61 -30 l54 0 0 -235 0 -234 -57 -3 c-44 -2
-58 -7 -58 -18 0 -13 34 -15 233 -18 l232 -2 0 94 c0 101 -5 126 -25 126 -19
0 -25 -24 -25 -106 l0 -74 -130 0 -130 0 0 235 0 235 60 0 c53 0 60 2 60 20 0
19 -7 20 -134 20 -79 0 -137 -4 -141 -10z"/>
<path d="M1920 720 c0 -18 7 -20 80 -20 l80 0 0 -235 0 -235 -80 0 c-73 0 -80
-2 -80 -20 0 -19 7 -20 180 -20 173 0 180 1 180 20 0 18 -7 20 -80 20 l-80 0
0 235 0 235 80 0 c73 0 80 2 80 20 0 19 -7 20 -180 20 -173 0 -180 -1 -180
-20z"/>
<path d="M2475 730 c-11 -18 5 -30 41 -30 l34 0 0 -234 0 -235 -37 -3 c-26 -2
-38 -8 -38 -18 0 -13 22 -15 140 -15 118 0 140 2 140 15 0 12 -17 16 -82 18
l-83 3 0 89 0 90 88 0 c74 0 96 4 139 25 101 51 128 155 61 240 -41 53 -87 65
-250 65 -87 0 -149 -4 -153 -10z m325 -45 c45 -23 70 -62 70 -109 0 -85 -64
-125 -197 -126 l-83 0 0 125 0 125 90 0 c61 0 101 -5 120 -15z"/>
<path d="M3660 720 c0 -18 7 -20 80 -20 l80 0 0 -235 0 -235 -80 0 c-73 0 -80
-2 -80 -20 0 -19 7 -20 180 -20 173 0 180 1 180 20 0 18 -7 20 -80 20 l-80 0
0 235 0 235 80 0 c73 0 80 2 80 20 0 19 -7 20 -180 20 -173 0 -180 -1 -180
-20z"/>
<path d="M4952 294 c-15 -10 -22 -25 -22 -49 0 -57 67 -85 118 -49 50 35 17
114 -48 114 -14 0 -36 -7 -48 -16z"/>
<path d="M6112 294 c-15 -10 -22 -25 -22 -49 0 -57 67 -85 118 -49 50 35 17
114 -48 114 -14 0 -36 -7 -48 -16z"/>
<path d="M7272 294 c-15 -10 -22 -25 -22 -49 0 -57 67 -85 118 -49 50 35 17
114 -48 114 -14 0 -36 -7 -48 -16z"/>
</g>
</svg>
