<?xml version="1.0" standalone="no"?>
<!DOCTYPE svg PUBLIC "-//W3C//DTD SVG 20010904//EN"
 "http://www.w3.org/TR/2001/REC-SVG-20010904/DTD/svg10.dtd">
<svg version="1.0" xmlns="http://www.w3.org/2000/svg"
 width="139.000000pt" height="172.000000pt" viewBox="0 0 139.000000 172.000000"
 preserveAspectRatio="xMidYMid meet">

<g transform="translate(0.000000,172.000000) scale(0.100000,-0.100000)"
fill="#000000" stroke="none">
<path d="M50 1580 c0 -5 11 -10 25 -10 l25 0 0 -135 0 -135 -25 0 c-14 0 -25
-4 -25 -10 0 -6 50 -10 130 -10 l130 0 0 50 c0 28 -4 50 -10 50 -5 0 -10 -18
-10 -40 l0 -40 -85 0 -85 0 0 65 0 65 40 0 c33 0 40 -3 40 -20 0 -11 5 -20 10
-20 6 0 10 23 10 50 0 28 -4 50 -10 50 -5 0 -10 -9 -10 -20 0 -17 -7 -20 -40
-20 l-40 0 0 60 0 60 74 0 75 0 3 -32 c5 -52 28 -47 28 6 l0 46 -125 0 c-77 0
-125 -4 -125 -10z"/>
<path d="M380 1580 c0 -5 16 -10 35 -10 l35 0 0 -135 0 -135 -35 0 c-19 0 -35
-4 -35 -10 0 -6 50 -10 130 -10 l130 0 0 60 c0 33 -4 60 -10 60 -5 0 -10 -22
-10 -50 l0 -50 -75 0 -75 0 0 135 0 135 35 0 c19 0 35 5 35 10 0 6 -33 10 -80
10 -47 0 -80 -4 -80 -10z"/>
<path d="M700 1580 c0 -5 16 -10 35 -10 l35 0 0 -135 0 -135 -35 0 c-19 0 -35
-4 -35 -10 0 -6 50 -10 130 -10 l130 0 0 60 c0 33 -4 60 -10 60 -5 0 -10 -22
-10 -50 l0 -50 -75 0 -75 0 0 135 0 135 35 0 c19 0 35 5 35 10 0 6 -33 10 -80
10 -47 0 -80 -4 -80 -10z"/>
<path d="M1050 1580 c0 -5 20 -10 45 -10 l45 0 0 -135 0 -135 -45 0 c-25 0
-45 -4 -45 -10 0 -6 40 -10 100 -10 60 0 100 4 100 10 0 6 -20 10 -45 10 l-45
0 0 135 0 135 45 0 c25 0 45 5 45 10 0 6 -40 10 -100 10 -60 0 -100 -4 -100
-10z"/>
<path d="M80 1001 c0 -6 9 -11 20 -11 19 0 20 -7 20 -135 0 -128 -1 -135 -20
-135 -11 0 -20 -4 -20 -10 0 -6 32 -10 75 -10 43 0 75 4 75 10 0 6 -20 10 -45
10 l-45 0 0 55 0 55 50 0 c111 0 166 77 106 147 -23 26 -29 28 -120 31 -65 3
-96 0 -96 -7z m196 -37 c20 -19 24 -31 20 -52 -11 -43 -41 -62 -102 -62 l-54
0 0 70 0 70 55 0 c47 0 60 -4 81 -26z"/>
<path d="M441 984 c-37 -31 -42 -75 -11 -102 11 -9 48 -24 82 -32 50 -12 66
-21 78 -42 13 -25 13 -31 0 -55 -33 -59 -132 -56 -160 4 -21 45 -30 41 -30
-12 0 -25 5 -45 10 -45 6 0 10 5 10 10 0 6 14 3 32 -6 74 -39 168 6 168 81 0
43 -33 70 -104 85 -30 6 -62 20 -71 30 -34 38 5 90 69 90 28 0 76 -35 76 -56
0 -8 5 -14 10 -14 6 0 10 20 10 45 0 41 -13 61 -22 34 -3 -9 -9 -9 -25 0 -37
19 -89 13 -122 -15z"/>
<path d="M730 1000 c0 -5 20 -10 45 -10 l45 0 0 -135 0 -135 -45 0 c-25 0 -45
-4 -45 -10 0 -6 40 -10 100 -10 60 0 100 4 100 10 0 6 -20 10 -45 10 l-45 0 0
135 0 135 45 0 c25 0 45 5 45 10 0 6 -40 10 -100 10 -60 0 -100 -4 -100 -10z"/>
<path d="M1081 984 c-37 -31 -42 -75 -11 -102 11 -9 48 -24 82 -32 50 -12 66
-21 78 -42 13 -25 13 -31 0 -55 -33 -59 -132 -56 -160 4 -21 45 -30 41 -30
-12 0 -25 5 -45 10 -45 6 0 10 5 10 10 0 6 14 3 32 -6 74 -39 168 6 168 81 0
43 -33 70 -104 85 -30 6 -62 20 -71 30 -34 38 5 90 69 90 28 0 76 -35 76 -56
0 -8 5 -14 10 -14 6 0 10 20 10 45 0 41 -13 61 -22 34 -3 -9 -9 -9 -25 0 -37
19 -89 13 -122 -15z"/>
<path d="M159 164 c-17 -21 0 -49 31 -49 31 0 48 28 31 49 -8 9 -21 16 -31 16
-10 0 -23 -7 -31 -16z"/>
<path d="M479 164 c-17 -21 0 -49 31 -49 31 0 48 28 31 49 -8 9 -21 16 -31 16
-10 0 -23 -7 -31 -16z"/>
<path d="M799 164 c-17 -21 0 -49 31 -49 31 0 48 28 31 49 -8 9 -21 16 -31 16
-10 0 -23 -7 -31 -16z"/>
</g>
</svg>
